<svg xmlns="http://www.w3.org/2000/svg" viewBox="0 0 1254 1254" width="1254" height="1254">
<defs>
<linearGradient id="grad2" x1="0.113" y1="0.727" x2="0.961" y2="0.000"><stop offset="0%" stop-color="#000133"/><stop offset="100%" stop-color="#598cfb"/></linearGradient><linearGradient id="grad7" x1="0.019" y1="0.987" x2="0.958" y2="0.214"><stop offset="0%" stop-color="#ea0000"/><stop offset="100%" stop-color="#fea14c"/></linearGradient>
</defs>
<g transform="translate(892,161)"><g transform="translate(-3.000000,22.000000) scale(1.000000,-1.000000)" fill="#0053fb" stroke="none"><path d="M3 13 l0 -10 10 0 10 0 0 10 0 9 -10 0 -10 0 0 -9z"/></g></g><g transform="translate(380,189)"><g transform="translate(-3.566808,365.903427) scale(1.000000,-1.000000)" fill="url(#grad2)" stroke="none"><path d="M188 365 c-42 -7 -81 -24 -111 -49 -16 -13 -27 -25 -40 -45 -15 -23
-25 -47 -31 -72 -2 -12 -2 -14 -2 -35 0 -20 0 -25 2 -33 10 -45 34 -81 71
-106 14 -9 43 -24 43 -21 0 0 -4 4 -8 7 -12 9 -29 27 -36 38 -16 25 -24 49
-24 75 0 19 3 33 12 50 14 27 42 47 80 56 8 2 11 2 109 3 111 1 104 0 120 7 9
5 16 11 22 19 5 7 9 17 9 23 l0 2 16 0 16 1 0 16 0 16 -16 0 -16 0 0 -16 0
-16 -16 0 -16 0 0 21 0 21 16 0 17 0 1 4 c1 2 4 11 9 19 4 8 7 15 7 16 0 0
-51 0 -113 0 -85 0 -115 -1 -121 -1z m182 -95 l0 -15 -14 0 -14 0 0 14 0 15
14 0 14 0 0 -14z"/></g></g><g transform="translate(830,197)"><g transform="translate(-3.000000,34.000000) scale(1.000000,-1.000000)" fill="#004cf5" stroke="none"><path d="M3 19 l0 -16 16 0 16 0 0 16 0 15 -16 0 -16 0 0 -15z"/></g></g><g transform="translate(876,247)"><g transform="translate(-3.000000,22.000000) scale(1.000000,-1.000000)" fill="#0147ec" stroke="none"><path d="M4 21 c-1 0 -1 -4 -1 -9 l0 -9 9 0 9 0 0 3 c1 4 1 12 0 14 0 2 -2 2
-8 2 -5 0 -9 0 -9 -1z"/></g></g><g transform="translate(828,274)"><g transform="translate(-3.000000,22.000000) scale(1.000000,-1.000000)" fill="#003ee8" stroke="none"><path d="M3 13 l0 -10 10 0 9 0 0 10 0 9 -9 0 -10 0 0 -9z"/></g></g><g transform="translate(486,398)"><g transform="translate(-3.310523,308.655739) scale(1.000000,-1.000000)" fill="#020d27" stroke="none"><path d="M114 308 c-40 -8 -72 -37 -82 -75 -3 -12 -3 -33 0 -44 4 -14 8 -21
20 -33 10 -11 13 -16 14 -23 1 -7 -1 -14 -6 -23 -13 -21 -58 -106 -57 -107 1
0 36 13 96 36 42 17 62 27 77 38 29 20 49 49 58 83 12 44 2 87 -28 117 -14 14
-29 23 -46 29 -8 2 -12 2 -24 3 -10 0 -17 -1 -22 -1z m30 -62 c10 -4 18 -15
19 -27 1 -13 -4 -23 -18 -32 0 0 2 -11 5 -25 4 -24 4 -25 3 -27 l-2 -3 -21 0
c-23 0 -23 0 -23 6 0 2 2 14 4 26 4 22 4 23 3 24 -5 3 -10 9 -13 14 -8 17 0
38 19 45 7 3 17 2 24 -1z"/></g></g><g transform="translate(432,455)"><g transform="translate(-3.000000,401.000000) scale(1.000000,-1.000000)" fill="url(#grad7)" stroke="none"><path d="M323 389 c14 -14 21 -24 28 -39 18 -35 17 -75 -1 -110 -17 -31 -43
-53 -76 -64 -14 -5 -26 -7 -50 -8 -70 -3 -121 -14 -168 -35 -8 -3 -16 -7 -17
-7 l-3 -1 0 -15 0 -14 -15 0 -15 1 -1 -17 0 -17 15 0 c13 0 15 0 15 -2 -1 0
-8 -14 -16 -29 -9 -15 -16 -28 -16 -28 0 -1 7 2 16 5 54 19 94 25 174 27 38 1
46 2 69 8 41 10 79 31 108 59 30 29 50 67 58 108 2 15 2 49 -1 63 -6 30 -21
58 -41 80 -11 12 -30 26 -46 35 -8 5 -26 12 -28 12 0 0 5 -6 11 -12z m-255
-309 l0 -16 -15 0 -16 0 0 5 c-1 2 -1 9 0 15 l0 11 16 0 15 0 0 -15z"/></g></g><g transform="translate(435,697)"><g transform="translate(-2.950457,36.000000) scale(1.000000,-1.000000)" fill="#fb4c00" stroke="none"><path d="M3 20 l1 -16 15 0 15 0 0 12 c0 7 0 14 -1 16 l0 4 -15 0 -15 0 0 -16z"/></g></g><g transform="translate(391,732)"><g transform="translate(-2.936529,27.000000) scale(1.000000,-1.000000)" fill="#fb4400" stroke="none"><path d="M3 15 l1 -11 11 0 11 0 0 11 0 12 -11 0 -12 0 0 -12z"/></g></g><g transform="translate(399,805)"><g transform="translate(-3.225981,23.000000) scale(1.000000,-1.000000)" fill="#f41b04" stroke="none"><path d="M3 13 l1 -9 9 -1 9 0 0 10 0 10 -9 0 -10 0 0 -10z"/></g></g><g transform="translate(379,845)"><g transform="translate(-3.000000,19.000000) scale(1.000000,-1.000000)" fill="#f31903" stroke="none"><path d="M3 11 l0 -8 8 0 8 0 0 8 0 8 -8 0 -8 0 0 -8z"/></g></g><g transform="translate(586,921)"><g transform="translate(-3.000000,22.365861) scale(1.000000,-1.000000)" fill="#fc5300" stroke="none"><path d="M9 22 c-4 -1 -6 -4 -6 -10 0 -6 3 -9 9 -9 4 0 6 1 8 2 7 8 0 20 -11
17z"/></g></g><g transform="translate(242,924)"><g transform="translate(-3.231562,87.917998) scale(1.000000,-1.000000)" fill="#00051c" stroke="none"><path d="M23 87 c-12 -3 -18 -10 -20 -21 -1 -11 4 -20 13 -25 5 -2 6 -3 35 -3
l29 0 2 -3 c2 -3 3 -8 0 -11 -2 -4 -7 -4 -43 -4 l-34 0 0 -8 1 -8 38 0 c24 0
40 0 42 1 5 2 10 6 13 11 2 4 3 6 3 13 0 8 -1 9 -4 14 -2 3 -4 5 -9 8 l-7 3
-27 0 c-24 0 -28 1 -30 2 -5 4 -5 11 1 14 1 1 13 1 36 1 25 0 34 0 35 1 1 1 1
12 0 14 0 2 -4 2 -36 2 -19 0 -37 -1 -38 -1z"/></g></g><g transform="translate(380,924)"><g transform="translate(-3.000000,86.869384) scale(1.000000,-1.000000)" fill="#fc5400" stroke="none"><path d="M4 86 c-1 0 -1 -19 -1 -42 l0 -41 9 0 9 0 0 12 0 11 22 0 c13 0 25 0
29 1 11 2 17 7 22 17 2 6 3 18 0 24 -2 7 -8 13 -14 16 -5 2 -6 3 -41 3 -19 0
-35 0 -35 -1z m68 -18 c4 -2 6 -6 6 -11 0 -7 -2 -11 -7 -13 -4 -2 -7 -2 -27
-2 l-23 0 0 14 0 14 24 0 c21 0 25 0 27 -2z"/></g></g><g transform="translate(638,924)"><g transform="translate(-3.000000,87.000000) scale(1.000000,-1.000000)" fill="#e81317" stroke="none"><path d="M3 79 l0 -9 18 0 18 0 0 -33 0 -34 9 0 9 0 0 33 c0 17 0 32 0 33 0 0
8 1 19 1 l19 1 0 8 0 8 -46 0 -46 0 0 -8z"/></g></g><g transform="translate(785,925)"><g transform="translate(-3.000000,86.077866) scale(1.000000,-1.000000)" fill="#01071d" stroke="none"><path d="M3 55 c0 -17 0 -32 1 -35 2 -6 5 -11 11 -14 l5 -3 24 0 25 0 0 8 0 8
-22 0 c-20 0 -22 1 -24 2 -2 2 -2 3 -2 33 l0 32 -9 0 -9 0 0 -31z"/></g></g><g transform="translate(950,925)"><g transform="translate(-3.000000,87.080885) scale(1.000000,-1.000000)" fill="#01061a" stroke="none"><path d="M3 46 l0 -42 8 0 9 1 -1 2 c0 3 1 4 3 2 1 -3 11 -6 17 -6 10 0 15 2
22 9 7 7 9 14 9 25 -1 13 -8 23 -19 27 -8 3 -19 2 -26 -2 l-5 -3 0 14 0 14 -9
0 -8 0 0 -41z m44 2 c9 -7 9 -21 -1 -28 -15 -10 -34 8 -24 24 3 5 8 7 15 7 5
0 8 -1 10 -3z"/></g></g><g transform="translate(865,946)"><g transform="translate(-3.325973,65.998815) scale(1.000000,-1.000000)" fill="#01061b" stroke="none"><path d="M22 64 c-7 -2 -13 -9 -16 -15 -3 -8 -4 -22 0 -29 3 -7 9 -13 16 -15
10 -4 23 -2 29 4 2 1 2 1 2 -2 l0 -3 9 0 8 0 0 31 0 30 -8 0 -8 0 -1 -3 c0 -3
-1 -3 -1 -2 -1 1 -4 2 -6 4 -7 3 -17 3 -24 0z m25 -16 c6 -4 8 -15 4 -22 -5
-10 -19 -12 -26 -4 -4 4 -5 6 -5 13 0 7 3 11 8 14 5 3 14 2 19 -1z"/></g></g><g transform="translate(504,947)"><g transform="translate(-2.761287,64.000000) scale(1.000000,-1.000000)" fill="#fb4b00" stroke="none"><path d="M17 62 c-5 -2 -9 -6 -11 -10 -2 -4 -2 -7 -3 -27 l0 -22 8 0 9 0 0 20
c0 20 0 20 2 23 3 2 3 2 17 2 l14 0 0 8 0 8 -16 0 c-12 0 -17 0 -20 -2z"/></g></g><g transform="translate(587,948)"><g transform="translate(-3.000000,63.000000) scale(1.000000,-1.000000)" fill="#fc5000" stroke="none"><path d="M4 62 c-1 0 -1 -14 -1 -30 l0 -29 9 0 8 0 0 30 0 30 -8 0 c-4 0 -8 0
-8 -1z"/></g></g><g transform="translate(360,1051)"><g transform="translate(-3.171796,30.705883) scale(1.000000,-1.000000)" fill="#01031b" stroke="none"><path d="M8 29 c-3 -1 -5 -5 -4 -9 1 -2 7 -6 11 -6 3 0 4 -3 3 -4 -2 -3 -6 -2
-9 0 -2 2 -2 2 -4 1 -3 -3 -3 -3 1 -6 3 -1 5 -2 8 -2 4 0 6 1 8 3 5 5 3 11 -6
14 -4 1 -5 2 -5 4 0 2 3 3 7 1 1 -2 2 -2 4 -1 3 1 3 2 0 4 -3 3 -11 3 -14 1z"/></g></g><g transform="translate(472,1051)"><g transform="translate(-3.396293,8.913266) scale(1.000000,-1.000000)" fill="#00011f" stroke="none"><path d="M4 7 c-1 -2 2 -5 4 -3 1 0 2 2 2 3 0 2 -5 3 -6 0z"/></g></g><g transform="translate(586,1051)"><g transform="translate(-3.000000,31.000000) scale(1.000000,-1.000000)" fill="#fc5b01" stroke="none"><path d="M3 17 l0 -14 3 0 c3 0 3 0 3 5 l0 5 4 0 c7 0 11 4 11 9 0 7 -4 9 -14
9 l-7 0 0 -14z m13 8 c1 0 2 -1 2 -3 0 -3 -1 -4 -6 -4 -3 0 -3 0 -3 4 0 4 0 4
3 4 2 0 4 0 4 -1z"/></g></g><g transform="translate(628,1051)"><g transform="translate(-3.587510,8.845224) scale(1.000000,-1.000000)" fill="#fb5d01" stroke="none"><path d="M4 8 c-1 -1 0 -3 1 -4 1 -1 1 -1 3 0 2 1 2 4 -1 5 -2 0 -3 0 -3 -1z"/></g></g><g transform="translate(794,1051)"><g transform="translate(-3.000000,31.000000) scale(1.000000,-1.000000)" fill="#e70b15" stroke="none"><path d="M3 29 c0 -3 0 -3 4 -3 l4 0 0 -11 1 -11 2 -1 3 0 0 11 0 12 4 0 c4 0
4 0 4 3 l0 2 -11 0 -11 0 0 -2z"/></g></g><g transform="translate(483,1054)"><g transform="translate(-3.000000,28.000000) scale(1.000000,-1.000000)" fill="#000011" stroke="none"><path d="M6 26 c0 -2 -1 -3 -1 -3 -1 0 -2 -1 -2 -2 0 -2 1 -3 1 -3 1 0 2 -2 2
-6 0 -5 0 -6 2 -8 3 -2 7 -1 8 2 0 2 0 2 -2 2 -3 0 -3 0 -3 5 0 4 0 5 2 5 2 0
3 1 3 3 0 2 0 2 -2 2 -3 0 -3 0 -3 3 0 2 0 2 -2 2 -2 0 -3 0 -3 -2z"/></g></g><g transform="translate(881,1054)"><g transform="translate(-3.000000,28.000000) scale(1.000000,-1.000000)" fill="#e5181c" stroke="none"><path d="M7 27 c-1 0 -1 -1 -1 -2 0 -1 -1 -2 -1 -2 -1 0 -2 -1 -2 -2 0 -1 1
-2 2 -3 1 0 1 -2 1 -5 0 -7 2 -10 7 -10 3 0 3 0 3 3 0 1 -1 2 -2 2 -2 0 -2 1
-2 5 0 4 0 5 2 5 3 1 3 5 0 5 -2 0 -3 0 -2 3 0 2 0 2 -2 2 -2 0 -3 0 -3 -1z"/></g></g><g transform="translate(386,1059)"><g transform="translate(-3.083884,23.118787) scale(1.000000,-1.000000)" fill="#01031c" stroke="none"><path d="M6 21 c-1 -2 -2 -4 -3 -7 0 -4 0 -5 3 -8 4 -4 9 -4 13 -1 2 2 2 2 1
3 -2 2 -3 2 -4 1 -1 -1 -6 -1 -7 1 0 1 2 1 6 1 6 0 7 1 7 3 0 2 -1 4 -3 6 -3
4 -8 4 -13 1z m9 -3 c1 -2 0 -2 -2 -2 -4 -1 -5 0 -3 2 2 1 3 1 5 0z"/></g></g><g transform="translate(409,1059)"><g transform="translate(-3.199557,23.129864) scale(1.000000,-1.000000)" fill="#010319" stroke="none"><path d="M6 21 c-6 -7 -2 -18 7 -18 4 0 8 2 8 4 0 3 -2 3 -5 2 -3 -1 -4 -1 -5
0 -2 1 -3 6 -1 8 2 1 5 1 7 0 0 -1 1 -1 3 0 l2 1 -2 3 c-3 3 -10 3 -14 0z"/></g></g><g transform="translate(432,1059)"><g transform="translate(-3.000000,23.000000) scale(1.000000,-1.000000)" fill="#030312" stroke="none"><path d="M3 16 c0 -6 0 -8 2 -10 2 -3 8 -4 10 -2 1 1 1 1 1 0 0 0 1 -1 3 -1
l2 0 0 10 c0 10 0 10 -2 10 -3 0 -3 0 -3 -7 -1 -7 -2 -9 -5 -8 -2 1 -2 2 -2 8
l0 7 -3 0 -3 0 0 -7z"/></g></g><g transform="translate(456,1059)"><g transform="translate(-3.577069,22.800000) scale(1.000000,-1.000000)" fill="#000113" stroke="none"><path d="M4 22 c0 0 0 -4 0 -9 0 -9 0 -10 2 -10 3 0 3 0 3 6 0 7 1 9 5 9 1 0
2 1 2 2 0 3 0 3 -6 3 -3 0 -6 0 -6 -1z"/></g></g><g transform="translate(473,1059)"><g transform="translate(-3.000000,23.000000) scale(1.000000,-1.000000)" fill="#000012" stroke="none"><path d="M3 13 l0 -10 3 0 c3 0 3 2 3 12 -1 8 -1 8 -4 8 -2 0 -2 0 -2 -10z"/></g></g><g transform="translate(498,1059)"><g transform="translate(-3.000000,31.113765) scale(1.000000,-1.000000)" fill="#000115" stroke="none"><path d="M3 31 c0 -1 2 -5 4 -10 1 -4 3 -9 3 -10 0 -1 -2 -2 -3 -2 -3 -1 -4
-5 -1 -5 3 -1 7 1 8 4 1 1 4 7 6 13 l4 10 -3 0 c-3 0 -4 -1 -5 -6 l-3 -6 -2 6
c-2 5 -2 6 -5 6 -2 0 -3 0 -3 0z"/></g></g><g transform="translate(544,1059)"><g transform="translate(-3.241098,16.368034) scale(1.000000,-1.000000)" fill="#fd5702" stroke="none"><path d="M7 16 c-1 -1 -2 -3 -3 -4 -1 -3 -1 -3 1 -6 4 -5 12 -3 12 4 0 4 -6 8
-10 6z"/></g></g><g transform="translate(612,1059)"><g transform="translate(-2.928963,22.885015) scale(1.000000,-1.000000)" fill="#fa5100" stroke="none"><path d="M3 13 c0 -9 1 -9 3 -9 2 0 3 0 3 6 1 6 1 7 5 8 1 1 2 2 2 3 0 1 -2 2
-7 2 l-6 0 0 -10z"/></g></g><g transform="translate(629,1059)"><g transform="translate(-3.000000,23.000000) scale(1.000000,-1.000000)" fill="#f75706" stroke="none"><path d="M3 13 l0 -10 3 0 2 0 0 10 0 10 -2 0 -3 0 0 -10z"/></g></g><g transform="translate(639,1059)"><g transform="translate(-2.996997,23.000000) scale(1.000000,-1.000000)" fill="#fa5702" stroke="none"><path d="M3 22 c0 0 2 -5 4 -10 3 -8 3 -9 6 -9 2 0 3 2 6 9 2 5 4 9 4 10 0 0
-1 1 -3 1 -2 0 -3 -1 -3 -2 -1 -2 -2 -4 -3 -7 l-1 -3 -2 6 c-2 5 -3 6 -5 6 -2
0 -3 0 -3 -1z"/></g></g><g transform="translate(662,1059)"><g transform="translate(-3.410286,22.829297) scale(1.000000,-1.000000)" fill="#fb5501" stroke="none"><path d="M6 21 c-1 -2 -2 -3 -2 -3 0 -2 3 -2 6 0 2 1 3 1 4 0 3 -2 2 -3 -2 -3
-8 0 -11 -6 -6 -10 2 -2 6 -3 9 -1 1 1 2 1 2 0 0 -1 1 -1 3 -1 2 0 2 0 2 10
l0 10 -7 0 c-6 0 -7 0 -9 -2z m10 -11 c-1 -2 -3 -2 -6 -2 -2 1 0 3 3 3 2 0 3
0 3 -1z"/></g></g><g transform="translate(686,1059)"><g transform="translate(-3.000000,23.054138) scale(1.000000,-1.000000)" fill="#fe5e03" stroke="none"><path d="M8 22 c-2 -1 -5 -6 -5 -9 0 -5 5 -10 11 -10 3 0 7 2 7 4 0 2 -3 3 -4
2 -2 -1 -5 -1 -7 0 -1 2 -1 7 1 8 2 2 3 2 5 0 1 -1 2 -1 4 0 l2 1 -2 3 c-3 2
-9 3 -12 1z"/></g></g><g transform="translate(708,1059)"><g transform="translate(-2.991713,31.000000) scale(1.000000,-1.000000)" fill="#fb5400" stroke="none"><path d="M3 30 c0 0 2 -5 4 -10 3 -7 3 -9 2 -10 -1 -1 -2 -2 -3 -2 -2 1 -3 -4
-1 -4 3 -1 8 1 9 3 1 3 9 23 9 24 0 0 -1 0 -3 0 -2 0 -3 0 -3 -1 0 0 -1 -3 -2
-6 l-2 -4 -2 5 c-2 5 -3 6 -5 6 -2 0 -3 0 -3 -1z"/></g></g><g transform="translate(754,1059)"><g transform="translate(-3.094415,16.291793) scale(1.000000,-1.000000)" fill="#fa270a" stroke="none"><path d="M7 16 c-1 -1 -2 -2 -3 -3 -4 -8 6 -14 11 -7 2 3 2 3 1 6 -1 3 -5 5
-9 4z"/></g></g><g transform="translate(821,1059)"><g transform="translate(-2.930290,22.815675) scale(1.000000,-1.000000)" fill="#e00f16" stroke="none"><path d="M3 13 c0 -9 1 -9 3 -9 2 0 3 0 3 5 0 8 1 9 4 9 1 0 2 0 2 1 0 0 0 2
1 2 0 2 -1 2 -6 2 l-7 0 0 -10z"/></g></g><g transform="translate(838,1059)"><g transform="translate(-3.000000,23.000000) scale(1.000000,-1.000000)" fill="#e30c16" stroke="none"><path d="M3 15 c0 -11 1 -12 10 -12 l8 1 0 9 0 10 -3 0 -3 0 0 -7 0 -7 -3 0
-3 0 -1 7 c0 7 0 7 -3 7 -2 0 -2 0 -2 -8z"/></g></g><g transform="translate(861,1059)"><g transform="translate(-3.000000,23.059122) scale(1.000000,-1.000000)" fill="#e41518" stroke="none"><path d="M5 21 c-1 -1 -2 -3 -2 -3 0 -3 3 -6 7 -7 4 0 5 -2 3 -3 -1 -1 -2 -1
-4 0 -3 2 -3 2 -5 0 -1 -1 -1 -1 1 -3 3 -3 9 -3 13 0 4 5 2 8 -4 10 -4 2 -6 4
-4 4 1 0 3 -1 4 -1 1 -1 2 -1 3 0 2 1 2 1 0 3 -2 3 -9 3 -12 0z"/></g></g><g transform="translate(250,1062)"><g transform="translate(-3.174274,8.000000) scale(1.000000,-1.000000)" fill="#fd4e00" stroke="none"><path d="M3 7 c0 -1 0 -2 0 -3 1 -1 13 -1 36 -1 l34 0 0 3 0 2 -35 0 c-29 0
-34 0 -35 -1z"/></g></g><g transform="translate(934,1062)"><g transform="translate(-3.174274,8.000000) scale(1.000000,-1.000000)" fill="#fd5400" stroke="none"><path d="M3 7 c0 -1 0 -2 0 -3 1 -1 12 -1 35 -1 33 0 34 0 34 2 1 1 1 2 0 2 0
1 -16 1 -34 1 -29 0 -34 0 -35 -1z"/></g></g>
</svg>